<svg width="48" height="48" viewBox="0 0 48 48" fill="none" xmlns="http://www.w3.org/2000/svg">
<path fill-rule="evenodd" clip-rule="evenodd" d="M48 24C48 37.2548 37.2548 48 24 48C10.7452 48 0 37.2548 0 24C0 10.7452 10.7452 0 24 0C37.2548 0 48 10.7452 48 24ZM16.0712 21.8017C13.6671 22.8513 11.1969 23.9298 8.93822 25.174L8.93806 25.1741C7.75857 26.0377 9.32637 26.6485 10.7971 27.2215C11.0309 27.3125 11.2622 27.4027 11.4797 27.4927C11.6607 27.5483 11.8447 27.6069 12.0311 27.6664C13.6668 28.1875 15.4907 28.7686 17.0787 27.8945C19.6873 26.396 22.149 24.6636 24.6089 22.9325C25.4148 22.3653 26.2205 21.7983 27.0311 21.2397C27.0691 21.2154 27.112 21.1876 27.1589 21.1572C27.8496 20.7095 29.4023 19.703 28.8279 21.0901C27.4694 22.5757 26.0144 23.8908 24.5514 25.213C23.5655 26.1041 22.5759 26.9985 21.6099 27.9505C20.7685 28.6341 19.8949 30.0088 20.837 30.9661C23.0048 32.4837 25.2064 33.9645 27.4068 35.4444C28.1257 35.9279 28.8444 36.4113 29.5618 36.8959C30.774 37.8637 32.6685 37.0808 32.935 35.5685C33.0534 34.8735 33.1723 34.1784 33.2912 33.4833C33.9489 29.638 34.6068 25.7914 35.188 21.9335C35.2669 21.3287 35.3565 20.7239 35.446 20.1188C35.6632 18.6515 35.8806 17.1823 35.9484 15.7071C35.7734 14.2351 33.9887 14.5588 32.9954 14.8898C27.8902 16.8324 22.836 18.919 17.8018 21.0424C17.2314 21.2951 16.6532 21.5475 16.0712 21.8017Z" fill="#B50000"/>
</svg>
