<svg width="209" height="209" viewBox="0 0 209 209" fill="none" xmlns="http://www.w3.org/2000/svg">
<g clip-path="url(#clip0)">
<path d="M104.507 209.014C162.224 209.014 209.014 162.224 209.014 104.507C209.014 46.7893 162.224 0 104.507 0C46.7893 0 0 46.7893 0 104.507C0 162.224 46.7893 209.014 104.507 209.014Z" fill="white"/>
<path d="M72.457 54.9641H35.0814V82.89H72.457V54.9641Z" fill="#E52421"/>
<path d="M116.633 54.9641H79.2576V82.89H116.633V54.9641Z" fill="#E52421"/>
<path d="M116.633 88.516H79.2576V116.442H116.633V88.516Z" fill="#E52421"/>
<path d="M72.457 88.516H35.0814V116.442H72.457V88.516Z" fill="#E52421"/>
<path d="M174.752 124.799H168.893V135.614H165.015C165.452 137.321 165.712 139.11 165.712 140.954C165.712 141.35 165.671 141.746 165.657 142.142H174.752V124.799Z" fill="black"/>
<path d="M123.406 135.614H123.393V124.799H82.2207C86.7134 128.746 89.5811 134.522 89.5811 140.954C89.5811 141.35 89.5401 141.746 89.5265 142.142H122.764C122.737 141.746 122.71 141.35 122.71 140.954C122.71 139.11 122.969 137.321 123.406 135.614Z" fill="black"/>
<path d="M53.9263 124.799H31.927V142.142H46.6205C46.5932 141.746 46.5659 141.35 46.5659 140.954C46.5659 134.522 49.4199 128.746 53.9263 124.799Z" fill="black"/>
<path d="M144.217 119.446C149.639 119.446 154.582 121.481 158.365 124.799H168.893V102.95L150.417 70.2858H123.379V124.813H130.057C133.853 121.481 138.796 119.446 144.217 119.446ZM132.706 78.9844H147.276L156.89 97.6108H132.706V78.9844Z" fill="black"/>
<path d="M123.406 135.614C124.499 131.354 126.861 127.612 130.07 124.799H123.393V135.614H123.406Z" fill="black"/>
<path d="M123.406 135.614C124.499 131.354 126.861 127.612 130.07 124.799H123.393V135.614H123.406Z" fill="black"/>
<path d="M165.029 135.614H168.907V124.799H158.378C161.574 127.612 163.936 131.354 165.029 135.614Z" fill="black"/>
<path d="M165.029 135.614H168.907V124.799H158.378C161.574 127.612 163.936 131.354 165.029 135.614Z" fill="black"/>
<path d="M68.0735 130.193C74.0137 130.193 78.8478 135.027 78.8478 140.967C78.8478 141.241 78.8342 141.541 78.7932 141.937C78.3016 147.427 73.5904 151.728 68.0735 151.728C62.5566 151.728 57.8454 147.427 57.3538 141.937C57.3128 141.541 57.2992 141.227 57.2992 140.967C57.2992 135.014 62.1333 130.193 68.0735 130.193ZM68.0735 124.731C59.129 124.731 51.8369 132.009 51.8369 140.967C51.8369 141.459 51.8642 141.951 51.9052 142.429C52.6426 150.69 59.607 157.19 68.0599 157.19C76.5127 157.19 83.4771 150.69 84.2145 142.429C84.2555 141.951 84.2828 141.459 84.2828 140.967C84.2964 132.009 77.018 124.731 68.0735 124.731Z" fill="black"/>
<path d="M144.217 130.016C148.519 130.016 152.438 132.569 154.213 136.529C154.842 137.936 155.156 139.424 155.156 140.954C155.156 141.227 155.142 141.541 155.101 141.937C154.596 147.509 149.816 151.878 144.217 151.878C138.619 151.878 133.839 147.509 133.334 141.937C133.293 141.541 133.279 141.227 133.279 140.954C133.279 139.424 133.593 137.936 134.222 136.529C135.997 132.569 139.916 130.016 144.217 130.016ZM144.217 124.553C137.54 124.553 131.791 128.568 129.237 134.303C128.336 136.338 127.817 138.578 127.817 140.954C127.817 141.459 127.844 141.951 127.885 142.429C128.636 150.786 135.669 157.354 144.204 157.354C152.752 157.354 159.771 150.786 160.522 142.429C160.563 141.937 160.591 141.445 160.591 140.954C160.591 138.591 160.072 136.338 159.17 134.303C156.644 128.568 150.895 124.553 144.217 124.553Z" fill="black"/>
</g>
<defs>
<clipPath id="clip0">
<rect width="209" height="209" fill="white"/>
</clipPath>
</defs>
</svg>
