<svg width="209" height="209" viewBox="0 0 209 209" fill="none" xmlns="http://www.w3.org/2000/svg">
<g clip-path="url(#clip0)">
<path d="M104.507 209.014C162.224 209.014 209.014 162.224 209.014 104.507C209.014 46.7893 162.224 0 104.507 0C46.7893 0 0 46.7893 0 104.507C0 162.224 46.7893 209.014 104.507 209.014Z" fill="white"/>
<path d="M46.9756 151.619C46.9756 122.205 46.9756 92.8039 46.9756 63.3896C47.0302 63.376 47.1258 63.376 47.1395 63.335C47.4945 62.4474 48.2046 62.2289 49.0786 62.2289C50.649 62.2425 52.233 62.2289 53.8034 62.2289C54.732 62.2289 54.7457 62.2289 54.7183 61.3276C54.691 60.1805 54.7457 59.0062 55.2509 57.9956C55.8518 56.8349 56.8213 55.92 58.105 55.4284C58.46 55.2918 58.8833 55.3328 59.1701 55.0323C59.7573 55.0323 60.3308 55.0323 60.918 55.0323C61.1092 55.087 61.2731 55.2099 61.4916 55.2645C62.8981 55.6195 63.9223 56.4662 64.687 57.6816C65.438 58.8833 65.479 60.2079 65.438 61.5598C65.4244 62.0514 65.561 62.2562 66.0935 62.2425C68.019 62.2152 69.9581 62.2289 71.8835 62.2289C75.5432 62.2289 79.1893 62.2289 82.849 62.2425C83.2314 62.2425 83.3679 62.1196 83.3543 61.7509C83.3406 61.232 83.3406 60.7131 83.3679 60.1942C83.4772 57.9137 84.9793 55.9609 87.1369 55.2918C87.3144 55.2372 87.5056 55.2508 87.5875 55.0323C88.2157 55.0323 88.8302 55.0323 89.4584 55.0323C89.6496 55.1006 89.8407 55.1962 90.0319 55.2372C92.0666 55.6059 94.0876 57.8318 94.0603 60.2488C94.0603 60.7404 94.0876 61.2457 94.0603 61.7373C94.0467 62.1196 94.1832 62.2289 94.5656 62.2289C100.205 62.2152 105.845 62.2152 111.485 62.2289C111.908 62.2289 112.004 62.0923 112.018 61.6963C112.045 60.7814 111.922 59.8528 112.222 58.9379C112.851 57.0124 114.066 55.7561 116.032 55.2645C116.196 55.2235 116.278 55.1416 116.374 55.0323C117.043 55.0323 117.698 55.0323 118.367 55.0323C118.436 55.2235 118.586 55.2235 118.75 55.2645C120.539 55.7424 121.727 56.8759 122.382 58.6101C122.765 59.607 122.737 60.6448 122.71 61.6827C122.696 62.106 122.819 62.2562 123.27 62.2562C128.514 62.2425 133.757 62.2425 139.015 62.2425C140.599 62.2425 140.626 62.2289 140.626 60.6585C140.626 58.0366 142.128 56.1658 144.204 55.3737C144.477 55.2645 144.818 55.3055 145.037 55.046C145.706 55.046 146.362 55.046 147.031 55.046C147.058 55.2918 147.263 55.2372 147.413 55.2782C148.779 55.6605 149.83 56.4389 150.567 57.6542C151.319 58.8696 151.4 60.2215 151.36 61.5871C151.346 62.0923 151.51 62.2699 152.029 62.2562C153.831 62.2289 155.634 62.2562 157.45 62.2562C158.078 62.2562 158.529 62.5839 158.856 63.1165C158.925 63.2258 158.884 63.4306 159.116 63.3896C159.116 92.8039 159.116 122.205 159.116 151.619C158.597 152.52 157.805 152.916 156.767 152.916C141.405 152.903 126.042 152.903 110.693 152.903C101.161 152.903 91.6433 152.916 82.1116 152.916C71.2417 152.916 60.3581 152.903 49.4882 152.916C48.3958 152.916 47.5218 152.629 46.9756 151.619ZM103.073 149.284C105.039 149.284 107.02 149.284 108.986 149.284C124.294 149.284 139.602 149.284 154.91 149.297C155.443 149.297 155.62 149.175 155.62 148.615C155.579 146.457 155.606 144.299 155.606 142.142C155.606 128.036 155.606 113.943 155.606 99.8366C155.606 96.0403 155.606 92.2304 155.62 88.4341C155.62 87.9698 155.456 87.7786 155.006 87.806C154.855 87.8196 154.719 87.806 154.569 87.806C142.115 87.806 129.647 87.8196 117.193 87.806C95.2484 87.806 73.2901 87.806 51.3454 87.7923C50.5261 87.7923 50.5261 87.7923 50.5261 88.639C50.5261 108.576 50.5261 128.514 50.5261 148.451C50.5261 149.284 50.5261 149.284 51.3727 149.284C68.5925 149.284 85.8396 149.284 103.073 149.284ZM103.046 84.2009C113.533 84.2009 124.021 84.2009 134.508 84.2009C141.295 84.2009 148.082 84.2009 154.883 84.2009C155.265 84.2009 155.552 84.2282 155.552 83.6683C155.538 77.8919 155.538 72.1292 155.552 66.3529C155.552 65.875 155.374 65.752 154.924 65.7657C153.968 65.793 153.012 65.8067 152.056 65.7657C151.523 65.7384 151.387 65.9296 151.414 66.4348C151.455 67.7048 151.4 68.9611 150.759 70.1082C149.748 71.8971 148.191 72.9076 146.129 72.9486C144.108 72.9896 142.524 72.061 141.432 70.354C140.681 69.1933 140.572 67.8687 140.626 66.5441C140.653 65.9705 140.517 65.7657 139.889 65.7657C134.413 65.793 128.923 65.7794 123.447 65.7794C123.338 65.7794 123.242 65.7794 123.133 65.7794C122.86 65.7657 122.765 65.8749 122.765 66.1481C122.778 66.667 122.778 67.1859 122.765 67.7048C122.696 70.0946 121.085 72.1292 118.763 72.7711C116.538 73.3856 114.202 72.457 112.878 70.4906C112.031 69.2206 111.963 67.8141 112.031 66.3802C112.059 65.875 111.881 65.7657 111.403 65.7657C105.832 65.7794 100.274 65.7794 94.7021 65.7657C94.1832 65.7657 94.0876 65.9432 94.0876 66.4075C94.074 67.3088 94.1696 68.2101 93.8691 69.1113C93.1181 71.3645 91.5613 72.6482 89.2535 72.9076C87.1369 73.1534 85.4436 72.2521 84.2282 70.4769C83.3816 69.2479 83.2587 67.855 83.3679 66.4348C83.4089 65.8476 83.2041 65.7521 82.6715 65.7521C77.455 65.7657 72.2522 65.7657 67.0358 65.7657C65.5336 65.7657 65.52 65.7657 65.5063 67.2269C65.479 70.0672 63.9223 71.9381 61.6827 72.6891C58.6239 73.7133 55.169 71.5557 54.8003 68.2783C54.7183 67.5956 54.691 66.9128 54.7047 66.23C54.7047 65.875 54.5818 65.752 54.2267 65.7657C53.2708 65.7794 52.315 65.8203 51.3591 65.7657C50.7036 65.7247 50.567 65.9569 50.567 66.5714C50.5807 72.1839 50.5807 77.7827 50.5807 83.3952C50.5807 84.2009 50.5807 84.2009 51.4137 84.2009C68.6198 84.2009 85.8396 84.2009 103.046 84.2009ZM90.5372 64.0178C90.5508 64.0178 90.5508 64.0178 90.5372 64.0178C90.5372 63.4579 90.5372 62.898 90.5372 62.3381C90.5372 61.7783 90.5508 61.2184 90.5372 60.6585C90.4962 59.4295 89.5813 58.3643 88.1611 58.7877C87.4646 58.9925 86.9457 59.7162 86.9321 60.6721C86.9048 62.898 86.9048 65.1102 86.9321 67.3361C86.9457 68.4013 87.6012 69.166 88.4069 69.2752C89.7178 69.4527 90.4689 68.6334 90.5235 67.3771C90.5918 66.2573 90.5372 65.1375 90.5372 64.0178ZM115.568 63.9632C115.568 64.9737 115.582 65.9979 115.554 67.0084C115.541 67.4317 115.623 67.8277 115.759 68.2237C115.991 68.8792 116.633 69.3025 117.398 69.2889C118.108 69.2752 118.832 68.8382 118.982 68.2237C119.091 67.8141 119.2 67.3907 119.187 66.9401C119.173 64.9327 119.173 62.9117 119.187 60.9043C119.187 60.4946 119.078 60.1259 118.968 59.7572C118.75 59.0198 117.808 58.6101 117.029 58.733C116.101 58.8832 115.582 59.6889 115.554 60.6585C115.541 61.7646 115.568 62.857 115.568 63.9632ZM58.3508 63.9495C58.3508 63.9495 58.3644 63.9495 58.3508 63.9495C58.3508 65.1785 58.3371 66.3939 58.3644 67.6229C58.3917 68.5242 59.0062 69.1933 59.8119 69.2752C61.0409 69.3981 61.833 68.7153 61.8603 67.459C61.8876 65.4926 61.8739 63.5125 61.8739 61.5461C61.8739 61.0955 61.8876 60.6312 61.8329 60.1805C61.6827 59.129 60.7132 58.5009 59.689 58.774C58.856 58.9925 58.3917 59.5524 58.3781 60.4673C58.3371 61.628 58.3508 62.7888 58.3508 63.9495ZM147.741 64.0451H147.754C147.754 62.8844 147.754 61.7236 147.754 60.5629C147.754 59.2519 146.894 58.6648 145.993 58.6784C145.023 58.6921 144.245 59.3475 144.245 60.5902C144.245 62.8707 144.245 65.1512 144.245 67.4317C144.245 67.855 144.327 68.251 144.586 68.6061C145.037 69.2069 145.802 69.4664 146.566 69.2479C147.154 69.084 147.713 68.4286 147.727 67.7185C147.768 66.4895 147.741 65.2604 147.741 64.0451Z" fill="black"/>
<path d="M103.046 84.2009C85.826 84.2009 68.6199 84.2009 51.4001 84.2009C50.5671 84.2009 50.5671 84.2009 50.5671 83.3952C50.5671 77.7827 50.5808 72.1839 50.5535 66.5714C50.5535 65.9569 50.7037 65.7248 51.3455 65.7657C52.3014 65.8204 53.2573 65.793 54.2132 65.7657C54.5682 65.7657 54.6911 65.8886 54.6911 66.23C54.6775 66.9128 54.7184 67.5956 54.7867 68.2784C55.1554 71.5557 58.6103 73.727 61.6692 72.6892C63.9087 71.9381 65.4655 70.0809 65.4928 67.2269C65.5064 65.7657 65.5201 65.7657 67.0222 65.7657C72.2387 65.7657 77.4415 65.7657 82.6579 65.7521C83.1768 65.7521 83.3953 65.8477 83.3544 66.4349C83.2451 67.855 83.3817 69.2479 84.2147 70.4769C85.43 72.2385 87.1233 73.1398 89.24 72.9076C91.5341 72.6482 93.1045 71.3646 93.8556 69.1114C94.156 68.2101 94.0604 67.3088 94.0741 66.4075C94.0741 65.9433 94.1697 65.7657 94.6886 65.7657C100.26 65.7794 105.818 65.7794 111.389 65.7657C111.867 65.7657 112.045 65.875 112.018 66.3802C111.949 67.8141 112.004 69.2206 112.864 70.4906C114.189 72.4433 116.524 73.3856 118.75 72.7711C121.071 72.1293 122.683 70.0946 122.751 67.7048C122.765 67.1859 122.765 66.667 122.751 66.1481C122.751 65.875 122.847 65.7657 123.12 65.7794C123.229 65.793 123.325 65.7794 123.434 65.7794C128.91 65.7794 134.399 65.793 139.875 65.7657C140.503 65.7657 140.64 65.9706 140.613 66.5441C140.558 67.8687 140.667 69.1933 141.418 70.354C142.524 72.061 144.095 72.9896 146.116 72.9486C148.164 72.9076 149.735 71.8971 150.745 70.1082C151.387 68.9748 151.442 67.7048 151.401 66.4349C151.387 65.9296 151.51 65.7384 152.042 65.7657C152.998 65.8067 153.954 65.793 154.91 65.7657C155.347 65.7521 155.538 65.875 155.538 66.3529C155.525 72.1293 155.525 77.892 155.538 83.6683C155.538 84.2145 155.238 84.2009 154.869 84.2009C148.082 84.2009 141.295 84.2009 134.495 84.2009C124.021 84.2009 113.533 84.2009 103.046 84.2009Z" fill="url(#paint0_linear)"/>
<path d="M141.746 96.2452C142.838 96.2452 143.945 96.2179 145.037 96.2452C146.539 96.2861 147.454 97.5424 146.894 98.7851C146.566 99.5362 145.911 99.8366 145.146 99.8503C142.866 99.8776 140.585 99.8776 138.305 99.8503C137.431 99.8366 136.748 99.4679 136.434 98.5939C136.215 97.9385 136.379 97.3786 136.83 96.8733C137.281 96.3681 137.881 96.2588 138.51 96.2452C139.588 96.2452 140.667 96.2452 141.746 96.2452Z" fill="black"/>
<path d="M64.3866 96.2724C65.7522 96.368 67.1178 96.1086 68.4697 96.409C69.1525 96.5729 69.726 97.2966 69.7533 98.0204C69.767 98.7578 69.1934 99.5771 68.497 99.741C68.1419 99.8229 67.7732 99.8775 67.3909 99.8775C65.3835 99.8639 63.3625 99.8639 61.3551 99.8639C61.2458 99.8639 61.1502 99.8639 61.041 99.8639C59.8393 99.8092 59.02 99.0582 59.0336 98.0477C59.0473 97.2147 59.6208 96.2997 61.0683 96.2724C61.6282 96.2588 62.1881 96.2724 62.748 96.2724C63.3215 96.2724 63.8541 96.2724 64.3866 96.2724Z" fill="black"/>
<path d="M141.719 109.163C142.907 109.163 144.081 109.15 145.269 109.163C146.116 109.177 146.853 109.805 147.017 110.584C147.181 111.389 146.798 112.209 146.047 112.536C145.692 112.7 145.296 112.782 144.9 112.782C142.784 112.782 140.667 112.809 138.55 112.782C137.772 112.769 137.021 112.591 136.598 111.813C135.956 110.638 136.734 109.232 138.113 109.177C139.315 109.122 140.517 109.163 141.719 109.163Z" fill="black"/>
<path d="M122.095 99.8639C121.071 99.782 119.747 100 118.422 99.7547C117.616 99.6045 117.07 98.9217 117.056 98.0887C117.043 97.3786 117.507 96.5729 118.367 96.3954C118.654 96.3407 118.927 96.2725 119.228 96.2725C121.358 96.2725 123.502 96.2725 125.632 96.2725C126.615 96.2725 127.462 96.7231 127.681 97.7473C127.872 98.6759 127.203 99.5635 126.493 99.741C126.028 99.8639 125.55 99.8776 125.072 99.8639C124.171 99.8639 123.283 99.8639 122.095 99.8639Z" fill="black"/>
<path d="M83.9141 96.2725C85.0612 96.3681 86.4131 96.1223 87.7513 96.3954C88.5843 96.5729 89.0759 97.3513 89.0759 98.0887C89.0623 98.908 88.5161 99.5908 87.7104 99.7683C87.3826 99.8366 87.0549 99.8776 86.7272 99.8776C84.6788 99.8639 82.6168 99.8776 80.5684 99.8776C79.476 99.8776 78.7522 99.4133 78.5201 98.6622C78.1104 97.3513 79.0527 96.2862 80.4455 96.2725C81.5107 96.2588 82.6168 96.2725 83.9141 96.2725Z" fill="black"/>
<path d="M103.114 99.8912C101.748 99.7956 100.41 100 99.0992 99.7683C98.2799 99.6181 97.7473 98.949 97.7337 98.1023C97.72 97.2557 98.2116 96.6138 99.031 96.3954C99.3724 96.2998 99.7137 96.2725 100.069 96.2725C102.131 96.2725 104.179 96.2588 106.241 96.2861C107.006 96.2861 107.702 96.45 108.139 97.201C108.726 98.1843 108.167 99.5635 107.047 99.782C105.736 100.014 104.398 99.782 103.114 99.8912Z" fill="black"/>
<path d="M64.2909 112.673C63.0892 112.673 61.8875 112.728 60.6858 112.659C59.6889 112.605 59.0334 111.84 59.0471 110.925C59.0744 110.024 59.8391 109.191 60.795 109.177C63.1984 109.136 65.6018 109.15 68.0052 109.177C68.9201 109.191 69.7122 110.01 69.7531 110.857C69.8078 111.826 69.1932 112.523 68.1418 112.687C66.8581 112.864 65.5745 112.605 64.2909 112.673Z" fill="black"/>
<path d="M83.6957 112.673C82.4531 112.673 81.2104 112.714 79.9677 112.659C78.7797 112.618 78.4246 111.676 78.37 110.952C78.3017 110.092 79.1074 109.191 80.0633 109.177C82.5077 109.136 84.952 109.123 87.3964 109.177C88.3796 109.204 89.0897 110.106 89.0351 111.062C88.9805 112.072 88.1884 112.728 86.9731 112.741C85.8806 112.755 84.7745 112.741 83.6821 112.741C83.6957 112.714 83.6957 112.7 83.6957 112.673Z" fill="black"/>
<path d="M122.396 109.15C123.516 109.15 124.635 109.136 125.755 109.15C126.807 109.163 127.435 109.682 127.667 110.706C127.858 111.553 127.189 112.55 126.315 112.646C124.827 112.809 123.324 112.782 121.836 112.728C120.757 112.687 119.678 112.837 118.6 112.673C117.589 112.509 117.002 111.84 117.043 110.87C117.084 109.942 117.848 109.204 118.832 109.177C120.033 109.136 121.221 109.163 122.396 109.15Z" fill="black"/>
<path d="M103.059 109.163C104.247 109.163 105.422 109.15 106.61 109.163C107.388 109.177 108.153 109.764 108.303 110.379C108.535 111.307 108.249 112.018 107.47 112.482C107.074 112.714 106.637 112.7 106.214 112.714C104.138 112.728 102.063 112.714 99.9869 112.7C99.5362 112.7 99.0719 112.728 98.6623 112.482C97.8975 112.031 97.5971 111.28 97.8156 110.365C97.9658 109.751 98.7442 109.163 99.5089 109.15C100.697 109.136 101.871 109.163 103.059 109.163Z" fill="black"/>
<path d="M64.3593 138.509C63.1576 138.509 61.9559 138.537 60.7542 138.496C59.9349 138.469 59.2248 137.813 59.0882 137.021C58.9517 136.27 59.375 135.492 60.0851 135.137C60.4128 134.973 60.7679 134.973 61.1093 134.973C63.3078 134.973 65.5064 134.973 67.705 134.973C68.456 134.973 69.0978 135.164 69.5075 135.819C70.2176 136.994 69.3983 138.455 67.9781 138.509C67.3772 138.537 66.7764 138.509 66.1755 138.523C65.561 138.509 64.9602 138.509 64.3593 138.509Z" fill="black"/>
<path d="M83.7912 134.973C84.9109 134.973 86.0307 134.959 87.1504 134.973C88.3521 135 89.0759 135.71 89.0486 136.762C89.0213 137.799 88.2429 138.496 87.0685 138.496C84.788 138.496 82.5075 138.509 80.227 138.496C79.3667 138.496 78.6566 137.95 78.4928 137.226C78.2743 136.311 78.5883 135.587 79.3531 135.164C79.7218 134.959 80.1041 134.973 80.5001 134.973C81.6063 134.959 82.6987 134.973 83.7912 134.973Z" fill="black"/>
<path d="M122.369 138.509C121.194 138.509 120.006 138.523 118.832 138.509C118.053 138.496 117.316 137.922 117.125 137.253C116.92 136.488 117.22 135.683 117.862 135.246C118.19 135.027 118.559 134.986 118.927 134.986C121.221 134.973 123.529 134.973 125.823 134.973C127.162 134.973 127.708 135.833 127.722 136.721C127.735 137.758 126.97 138.523 125.728 138.523C124.608 138.509 123.488 138.509 122.369 138.509Z" fill="black"/>
<path d="M141.719 138.509C140.571 138.509 139.438 138.523 138.291 138.509C137.185 138.496 136.366 137.745 136.352 136.762C136.338 135.737 137.089 134.986 138.25 134.973C140.558 134.945 142.852 134.945 145.16 134.973C146.321 134.986 147.058 135.724 147.058 136.748C147.058 137.635 146.239 138.578 145.078 138.537C143.958 138.482 142.838 138.523 141.719 138.509Z" fill="black"/>
<path d="M103.059 138.509C101.912 138.509 100.779 138.509 99.6319 138.509C98.4984 138.496 97.7747 137.813 97.7474 136.748C97.7201 135.71 98.3892 135 99.5363 134.986C101.885 134.945 104.22 134.945 106.569 134.986C107.702 135 108.371 135.724 108.358 136.748C108.331 137.813 107.62 138.496 106.487 138.509C105.9 138.523 105.326 138.509 104.739 138.509C104.179 138.509 103.619 138.509 103.059 138.509Z" fill="black"/>
<path d="M141.705 125.591C140.558 125.591 139.424 125.605 138.277 125.591C137.13 125.578 136.352 124.867 136.352 123.857C136.352 122.833 137.13 122.095 138.25 122.082C140.599 122.068 142.934 122.068 145.283 122.082C146.129 122.082 146.812 122.655 147.003 123.42C147.195 124.198 146.812 124.977 146.088 125.414C145.774 125.605 145.447 125.578 145.133 125.591C143.985 125.605 142.852 125.591 141.705 125.591Z" fill="black"/>
<path d="M64.4001 125.591C63.2121 125.591 62.0377 125.564 60.8497 125.605C59.7572 125.632 59.0471 124.635 59.0471 123.857C59.0608 122.874 59.8255 122.095 60.8906 122.082C63.2394 122.068 65.5882 122.095 67.9233 122.068C68.9884 122.068 69.7122 122.942 69.7532 123.789C69.7805 124.567 69.084 125.605 67.9506 125.591C66.7626 125.564 65.5882 125.591 64.4001 125.591Z" fill="black"/>
<path d="M122.369 125.591C121.208 125.591 120.047 125.564 118.886 125.605C117.821 125.646 117.029 124.717 117.056 123.857C117.084 122.833 117.794 122.095 118.873 122.095C121.208 122.082 123.557 122.109 125.892 122.082C126.82 122.068 127.708 122.792 127.708 123.843C127.708 124.813 126.902 125.632 125.892 125.605C124.731 125.564 123.543 125.591 122.369 125.591Z" fill="black"/>
<path d="M83.7228 125.591C82.5621 125.591 81.4014 125.564 80.2406 125.605C79.1345 125.646 78.3971 124.731 78.3835 123.816C78.3698 122.833 79.1755 122.082 80.227 122.082C82.5621 122.068 84.9109 122.068 87.2596 122.082C88.1336 122.082 88.83 122.628 89.0076 123.365C89.2124 124.239 88.8574 124.963 88.038 125.427C87.7649 125.591 87.4781 125.564 87.205 125.578C86.0443 125.605 84.8836 125.591 83.7228 125.591Z" fill="black"/>
<path d="M102.991 125.591C101.844 125.591 100.711 125.55 99.5637 125.605C98.676 125.646 97.7201 124.908 97.7338 123.857C97.7474 122.805 98.4575 122.082 99.591 122.082C101.899 122.068 104.193 122.068 106.501 122.082C107.361 122.082 108.112 122.587 108.29 123.242C108.535 124.212 108.221 124.949 107.375 125.441C107.102 125.605 106.815 125.578 106.528 125.578C105.354 125.605 104.179 125.591 102.991 125.591Z" fill="black"/>
<path d="M64.3866 107.047C59.3477 107.047 55.251 102.95 55.251 97.9111C55.251 92.8722 59.3477 88.7755 64.3866 88.7755C69.4256 88.7755 73.5223 92.8722 73.5223 97.9111C73.5223 102.95 69.4256 107.047 64.3866 107.047ZM64.3866 90.7692C60.4401 90.7692 57.2447 93.9783 57.2447 97.9111C57.2447 101.858 60.4538 105.053 64.3866 105.053C68.3195 105.053 71.5285 101.844 71.5285 97.9111C71.5422 93.9783 68.3331 90.7692 64.3866 90.7692Z" fill="url(#paint1_linear)"/>
</g>
<defs>
<linearGradient id="paint0_linear" x1="50.5663" y1="74.9847" x2="155.549" y2="74.9847" gradientUnits="userSpaceOnUse">
<stop stop-color="#E20D18"/>
<stop offset="0.356" stop-color="#D81218"/>
<stop offset="0.9912" stop-color="#BE1818"/>
<stop offset="1" stop-color="#BE1818"/>
</linearGradient>
<linearGradient id="paint1_linear" x1="55.2618" y1="97.9181" x2="73.5197" y2="97.9181" gradientUnits="userSpaceOnUse">
<stop stop-color="#E20D18"/>
<stop offset="0.356" stop-color="#D81218"/>
<stop offset="0.9912" stop-color="#BE1818"/>
<stop offset="1" stop-color="#BE1818"/>
</linearGradient>
<clipPath id="clip0">
<rect width="209" height="209" fill="white"/>
</clipPath>
</defs>
</svg>
