<svg width="209" height="209" viewBox="0 0 209 209" fill="none" xmlns="http://www.w3.org/2000/svg">
<g clip-path="url(#clip0)">
<path d="M104.507 209.014C162.224 209.014 209.014 162.224 209.014 104.507C209.014 46.7893 162.224 0 104.507 0C46.7893 0 0 46.7893 0 104.507C0 162.224 46.7893 209.014 104.507 209.014Z" fill="white"/>
<path d="M133.88 113.97C133.88 107.115 139.452 101.544 146.307 101.544H162.161V93.5413C162.161 87.1505 156.986 81.975 150.595 81.975H79.6398C73.249 81.975 68.0735 87.1505 68.0735 93.5413V134.891C68.0735 141.282 73.249 146.457 79.6398 146.457H150.595C156.986 146.457 162.161 141.282 162.161 134.891V126.861H146.771C139.67 126.861 133.88 121.085 133.88 113.97Z" fill="black"/>
<path d="M165.766 105.791C165.52 105.545 165.247 105.326 164.947 105.135C164.442 104.807 163.882 104.562 163.267 104.439C162.939 104.37 162.612 104.343 162.27 104.343H162.147H146.293C140.967 104.343 136.666 108.658 136.666 113.97C136.666 119.555 141.186 124.075 146.771 124.075H162.161H162.516C162.844 124.075 163.158 124.048 163.458 123.98C163.991 123.871 164.496 123.652 164.947 123.379C165.001 123.338 165.083 123.311 165.138 123.27C166.394 122.423 167.214 120.989 167.214 119.378V109.273C167.214 107.907 166.667 106.678 165.766 105.791Z" fill="black"/>
<path d="M96.7913 54.4862L93.7188 54.0082C93.4047 53.9536 93.077 53.9399 92.7629 53.9399C92.722 53.9399 92.681 53.9263 92.64 53.9263C92.5854 53.9263 92.5171 53.9263 92.4625 53.9399C92.3669 53.9399 92.2713 53.9399 92.1757 53.9536C92.0528 53.9672 91.9163 53.9809 91.7934 53.9945C91.6978 54.0082 91.6158 54.0219 91.5203 54.0355C91.3974 54.0628 91.2745 54.0765 91.1379 54.1038C91.056 54.1174 90.9604 54.1448 90.8784 54.1584C90.7419 54.1857 90.619 54.2267 90.4961 54.2813C90.4141 54.3086 90.3459 54.3223 90.2639 54.3496C90.1137 54.4042 89.9772 54.4588 89.827 54.5271C89.7723 54.5544 89.7177 54.5681 89.6767 54.5954C89.4856 54.691 89.2944 54.7866 89.1169 54.8958C89.0759 54.9231 89.0349 54.9504 88.994 54.9778C88.8574 55.0597 88.7208 55.1416 88.5979 55.2372C88.5297 55.2782 88.475 55.3328 88.4204 55.3738C88.3112 55.4557 88.2156 55.5376 88.1063 55.6196C88.0381 55.6742 87.9834 55.7288 87.9152 55.7971C87.8196 55.879 87.7376 55.9746 87.642 56.0566C87.5738 56.1248 87.5192 56.1931 87.4645 56.2614C87.3826 56.357 87.3007 56.4526 87.2324 56.5482C87.1778 56.6164 87.1231 56.6984 87.0685 56.7666C87.0002 56.8622 86.932 56.9715 86.8637 57.0671C86.8091 57.149 86.7681 57.2173 86.7135 57.2992C86.6452 57.4085 86.5906 57.5177 86.5359 57.627C86.495 57.7089 86.454 57.7908 86.413 57.8728C86.3584 57.9957 86.3038 58.1186 86.2628 58.2415C86.2355 58.3234 86.1945 58.4053 86.1672 58.4736C86.1126 58.6102 86.0716 58.7604 86.0307 58.8969C86.017 58.9652 85.9897 59.0335 85.9624 59.1018C85.9078 59.3203 85.8668 59.5387 85.8258 59.7572L82.8762 78.6567H89.4992L95.8628 56.5755C96.1086 55.8517 96.409 55.1416 96.7913 54.4862Z" fill="#E52421"/>
<path d="M108.385 54.65C108.563 54.2677 108.767 53.9126 108.972 53.5712C109.041 53.462 109.109 53.3664 109.177 53.2572L107.115 52.6563C106.828 52.5744 106.542 52.5198 106.255 52.4788C106.173 52.4651 106.091 52.4515 106.009 52.4515C105.777 52.4242 105.558 52.4105 105.326 52.4105C105.285 52.4105 105.231 52.3969 105.19 52.3969C105.176 52.3969 105.162 52.3969 105.135 52.3969C104.807 52.3969 104.493 52.4242 104.166 52.4788C104.097 52.4924 104.029 52.5061 103.974 52.5061C103.729 52.5471 103.496 52.6153 103.251 52.6836C103.182 52.7109 103.1 52.7109 103.032 52.7382C103.005 52.7519 102.977 52.7656 102.95 52.7656C102.663 52.8611 102.377 52.984 102.103 53.1206C102.049 53.1479 102.008 53.1616 101.953 53.1889C101.68 53.3391 101.407 53.503 101.148 53.6941C101.093 53.7351 101.038 53.7761 100.997 53.817C100.738 54.0082 100.492 54.2267 100.26 54.4589C100.246 54.4725 100.233 54.4862 100.233 54.4998C100.096 54.65 99.9732 54.8139 99.8367 54.9778C99.7684 55.0734 99.6864 55.1416 99.6182 55.2372C99.5772 55.2919 99.5499 55.3328 99.5089 55.3874C99.3314 55.6606 99.1675 55.9337 99.0173 56.2341C98.99 56.2887 98.9627 56.357 98.9354 56.4116C98.7852 56.7257 98.6623 57.0398 98.5667 57.3812L92.4216 78.684H97.4742L107.675 56.1931L108.385 54.65Z" fill="#E52421"/>
<path d="M152.452 74.6556C154.022 71.187 152.493 67.0903 149.024 65.5199L144.177 63.3214L126.807 55.442L120.074 52.3832C119.856 52.2876 119.624 52.192 119.391 52.1237C119.31 52.0964 119.228 52.0827 119.159 52.0554C119.009 52.0145 118.859 51.9598 118.709 51.9325C118.613 51.9052 118.518 51.9052 118.422 51.8779C118.285 51.8506 118.149 51.8233 118.012 51.8096C117.917 51.796 117.807 51.796 117.712 51.7823C117.575 51.7687 117.452 51.7687 117.316 51.755C117.289 51.755 117.261 51.755 117.234 51.755C117.193 51.755 117.152 51.7687 117.097 51.7687C116.852 51.7687 116.619 51.796 116.387 51.8233C116.319 51.8369 116.251 51.8369 116.196 51.8506C115.909 51.8916 115.636 51.9598 115.363 52.0281C115.308 52.0418 115.254 52.0691 115.199 52.0827C115.199 52.0827 115.199 52.0827 115.186 52.0827C114.953 52.151 114.735 52.233 114.516 52.3285C114.448 52.3559 114.394 52.3832 114.325 52.4105C114.066 52.5334 113.806 52.6699 113.574 52.8201C113.533 52.8475 113.506 52.8748 113.465 52.9021C113.26 53.0386 113.055 53.1888 112.864 53.3527C112.809 53.3937 112.755 53.4483 112.7 53.4893C112.495 53.6668 112.304 53.858 112.113 54.0628C112.099 54.0765 112.099 54.0765 112.086 54.0901C112.086 54.0901 112.086 54.0901 112.072 54.1038C112.058 54.1311 112.031 54.1447 112.017 54.1721C111.84 54.3769 111.676 54.5954 111.526 54.8275C111.485 54.8958 111.444 54.9641 111.403 55.0187C111.239 55.2782 111.089 55.5376 110.966 55.8244L110.584 56.6574L100.574 78.6976H150.649L152.452 74.6556Z" fill="#E52421"/>
<path d="M146.484 117.207C148.272 117.207 149.721 115.758 149.721 113.97C149.721 112.183 148.272 110.734 146.484 110.734C144.697 110.734 143.248 112.183 143.248 113.97C143.248 115.758 144.697 117.207 146.484 117.207Z" fill="white"/>
<path d="M102.295 154.364H49.8295C45.3778 154.364 41.759 150.745 41.759 146.293V117.794C41.759 113.342 45.3778 109.723 49.8295 109.723H102.295C106.746 109.723 110.365 113.342 110.365 117.794V146.293C110.365 150.759 106.746 154.364 102.295 154.364Z" fill="#E52421"/>
<path d="M110.365 119.542H41.759V127.995H110.365V119.542Z" fill="white"/>
<path d="M90.4688 148.287C93.6213 148.287 96.1769 145.731 96.1769 142.579C96.1769 139.426 93.6213 136.871 90.4688 136.871C87.3163 136.871 84.7607 139.426 84.7607 142.579C84.7607 145.731 87.3163 148.287 90.4688 148.287Z" fill="white"/>
<path d="M97.9793 147.44C100.664 147.44 102.841 145.264 102.841 142.579C102.841 139.894 100.664 137.717 97.9793 137.717C95.2944 137.717 93.1179 139.894 93.1179 142.579C93.1179 145.264 95.2944 147.44 97.9793 147.44Z" fill="white"/>
</g>
<defs>
<clipPath id="clip0">
<rect width="209" height="209" fill="white"/>
</clipPath>
</defs>
</svg>
