<svg width="209" height="209" viewBox="0 0 209 209" fill="none" xmlns="http://www.w3.org/2000/svg">
<path d="M104.5 209C162.214 209 209 162.214 209 104.5C209 46.7862 162.214 0 104.5 0C46.7862 0 0 46.7862 0 104.5C0 162.214 46.7862 209 104.5 209Z" fill="white"/>
<path d="M105.693 26.6064C106.166 26.7718 106.627 26.9609 107.111 27.1027C114.034 29.1111 118.217 35.5973 117.236 42.8042C116.326 49.4322 110.207 54.6779 103.378 54.6779C96.5489 54.6779 90.4525 49.444 89.5192 42.8042C88.5149 35.6328 92.7209 29.1111 99.6443 27.1027C100.129 26.9609 100.589 26.7718 101.062 26.6064C102.61 26.6064 104.146 26.6064 105.693 26.6064Z" fill="#B50000"/>
<path d="M105.563 110.573C103.992 110.573 102.681 110.573 101.204 110.573C100.767 115.842 100.341 121.017 99.916 126.18C98.7936 139.814 97.7303 153.46 96.5134 167.082C96.0999 171.725 92.3901 174.738 88.1605 174.277C83.6828 173.804 80.8945 170.071 81.2844 165.239C82.6431 148.663 84.0254 132.075 85.2777 115.488C85.963 106.402 86.3883 97.3049 86.9199 88.4676C90.0036 87.0026 93.2053 85.4667 96.4189 83.9663C97.6358 83.3992 98.8645 82.8084 100.14 82.3949C102.87 81.5207 105.563 81.0835 108.222 82.8912C109.911 84.0372 111.813 84.876 113.68 85.7266C115.759 86.6718 117.91 87.4634 120.284 88.4322C120.284 89.1056 120.237 90.1335 120.296 91.1495C120.875 101.794 121.336 112.439 122.08 123.073C122.919 134.993 124.006 146.891 124.975 158.8C125.164 161.104 125.329 163.408 125.518 165.711C125.873 170.177 122.848 173.887 118.512 174.289C114.401 174.667 110.667 171.69 110.277 167.377C109.32 156.827 108.493 146.253 107.619 135.691C106.934 127.373 106.249 119.056 105.563 110.573Z" fill="#B50000"/>
<path d="M146.406 119.623C145.26 119.623 144.126 119.623 142.779 119.623C142.366 124.561 141.952 129.464 141.562 134.367C140.641 145.697 139.79 157.028 138.786 168.358C138.302 173.793 132.501 176.569 128.306 173.45C127.822 173.095 127.279 172.032 127.468 171.678C129.157 168.57 128.803 165.274 128.354 162.061C126.877 151.286 127.598 140.558 128.472 129.783C129.24 120.379 129.535 110.951 130.043 101.523C130.067 101.086 130.102 100.648 130.102 100.637C132.95 99.3016 135.537 98.0846 138.113 96.8796C138.987 96.4661 139.826 95.9935 140.724 95.6627C143.535 94.623 146.3 93.8668 149.124 95.8399C150.636 96.8914 152.373 97.6475 154.062 98.4155C155.622 99.1243 157.252 99.6678 159.249 100.448C159.249 100.814 159.213 101.558 159.249 102.302C159.969 114.282 160.619 126.274 161.458 138.242C162.132 147.978 163.065 157.701 163.809 167.436C164.105 171.193 161.423 174.371 157.866 174.702C154.133 175.057 150.99 172.599 150.553 168.63C149.986 163.467 149.679 158.268 149.254 153.082C148.356 142.141 147.458 131.189 146.56 120.249C146.56 120.048 146.477 119.871 146.406 119.623Z" fill="black"/>
<path d="M63.9879 119.634C62.6174 119.634 61.4832 119.634 60.2308 119.634C59.6992 125.908 59.1675 132.099 58.6713 138.301C57.8679 148.226 57.1118 158.15 56.2729 168.074C55.9185 172.351 52.7876 175.08 48.8416 174.69C45.0609 174.324 42.6035 171.004 42.9461 166.822C44.3402 149.797 45.7698 132.772 47.0812 115.736C47.4238 111.258 47.3648 106.757 47.4947 102.267C47.5183 101.57 47.4947 100.885 47.4947 100.743C51.2518 98.9471 54.7489 97.5175 57.9742 95.639C60.1718 94.363 62.2511 94.3985 64.3896 95.1546C66.4335 95.8753 68.3475 96.9504 70.3323 97.8365C72.3053 98.7108 74.302 99.5378 76.594 100.507C76.6059 100.578 76.7122 101.074 76.6886 101.558C76.3105 113.739 77.7991 125.813 78.9097 137.888C79.6186 145.638 79.1342 153.271 78.4844 160.95C78.1772 164.565 77.3974 168.228 79.2878 171.725C79.465 172.068 78.9924 173.036 78.5671 173.379C74.8809 176.321 69.139 174.36 68.2647 169.657C67.5677 165.889 67.4377 162.002 67.1187 158.174C66.0791 145.367 65.0394 132.571 63.9879 119.634Z" fill="black"/>
<path d="M109.569 82.0287C114.105 80.3628 115.618 78.118 115.11 73.7112C116.61 74.491 117.981 75.1998 119.363 75.9087C119.516 75.826 119.682 75.7315 119.835 75.6488C119.599 75.1998 119.469 74.5855 119.091 74.3492C116.669 72.8015 114.354 70.7339 111.695 70.0132C108.375 69.1271 104.736 68.9972 101.275 69.2217C96.4072 69.5407 92.0121 71.6555 87.8652 74.1956C87.4281 74.4673 87.2036 75.0935 86.6129 75.9442C90.7243 74.2192 94.1269 72.577 97.6713 71.3483C101.487 70.0251 105.481 69.9542 109.474 70.5803C112.345 71.0293 114.129 73.345 113.81 76.1923C113.515 78.7442 111.187 80.859 108.541 80.4573C102.929 79.5949 98.0612 81.3316 93.3354 84.0608C91.6931 85.006 89.8973 85.8684 88.0661 86.3174C84.6871 87.1326 82.0052 85.514 79.9849 82.9857C76.0979 78.1062 75.7198 72.6125 78.0237 67.0123C80.2566 61.5894 84.6044 58.5413 90.4053 58.3522C99.0654 58.0805 107.749 58.116 116.409 58.3404C122.517 58.494 127.373 62.511 129.275 68.2883C131.213 74.1838 129.689 80.6464 125.589 84.2616C122.836 86.6836 119.8 87.2153 116.504 85.6676C114.176 84.5334 111.955 83.2692 109.569 82.0287Z" fill="#B50000"/>
<path d="M133.233 74.4791C133.859 74.4319 134.367 74.361 134.875 74.361C141.491 74.361 148.108 74.3019 154.724 74.3728C164.447 74.4791 170.473 83.8126 166.692 92.8153C164.294 98.51 159.863 100.117 154.417 97.2576C153.058 96.5488 151.711 95.8044 150.104 94.9538C153.554 93.7605 155.35 91.5984 154.842 87.8296C156.212 88.4676 157.429 89.0229 158.634 89.5781C158.717 89.46 158.812 89.3419 158.894 89.2237C158.741 88.9402 158.658 88.5267 158.41 88.3731C156.13 86.9671 153.968 85.1241 151.475 84.3561C148.923 83.5763 146.016 83.5882 143.299 83.7772C138.869 84.0726 134.887 85.9511 131.118 88.2195C130.799 88.4085 130.598 88.7984 130.339 89.0938C130.433 89.2473 130.528 89.4009 130.622 89.5545C131.307 89.2592 132.04 89.0229 132.69 88.6566C137.711 85.7502 143.075 84.2852 148.911 84.8759C152.219 85.2067 154.098 87.1916 153.684 89.8971C153.342 92.1892 151.368 93.9141 149.041 93.5597C144.315 92.8272 140.18 94.2449 136.21 96.5606C135.431 97.0095 134.651 97.4585 133.836 97.8365C129.996 99.6324 126.262 98.8644 124.136 95.1901C123.226 93.6187 123.651 91.2676 123.51 89.271C123.498 89.1292 123.864 88.9283 124.089 88.822C130.043 85.9983 132.512 80.9062 133.233 74.4791Z" fill="black"/>
<path d="M76.3932 88.7866C71.0412 85.1713 65.1811 83.2455 58.5532 83.6354C54.1227 83.8953 51.3581 87.1444 47.7074 88.7866C47.8373 89.0583 47.9673 89.3419 48.0972 89.6136C49.2787 89.0465 50.4602 88.4912 51.5235 87.9832C51.9252 89.4364 52.0315 91.0432 52.7994 92.2128C53.591 93.4061 55.0324 94.1622 56.2611 95.1665C54.4653 96.1116 52.5513 97.2458 50.5429 98.1319C47.3647 99.526 44.2811 98.7226 41.9418 95.8399C38.492 91.5985 38.0903 86.8135 40.1697 81.8987C42.1781 77.1374 45.9942 74.5618 51.1336 74.4319C58.1987 74.2546 65.2638 74.3728 72.329 74.361C72.6952 74.361 73.0733 74.4437 72.8961 74.4201C74.1248 77.5864 74.9045 80.5991 76.405 83.1983C77.5156 85.1122 79.3468 86.8372 81.2608 87.9714C82.9739 88.9992 83.4465 90.0035 83.3992 91.8466C83.2811 96.726 78.7206 99.9868 74.0893 98.3091C73.0142 97.9193 71.9745 97.3758 70.9821 96.7969C66.847 94.3867 62.5819 92.7799 57.6198 93.5597C55.3041 93.9259 53.3547 92.1183 53.0476 89.8144C52.7522 87.6169 54.099 85.5848 56.4029 85.1477C61.6958 84.1435 66.7407 85.0177 71.561 87.3806C73.0615 88.1131 74.5501 88.8693 76.0387 89.6136C76.1687 89.3419 76.275 89.0583 76.3932 88.7866Z" fill="black"/>
<path d="M74.1839 59.1084C74.1957 65.8309 68.8201 71.2538 62.133 71.2775C55.4932 71.3011 50.0467 65.8664 49.9995 59.1557C49.9522 52.4923 55.4105 47.0103 62.0858 47.0221C68.8083 47.0339 74.1721 52.3859 74.1839 59.1084Z" fill="black"/>
<path d="M132.572 58.9075C132.701 52.0905 138.16 46.9039 145.071 47.0339C151.593 47.152 156.898 52.7403 156.756 59.3565C156.614 66.0435 151.026 71.4546 144.433 71.2892C137.723 71.112 132.453 65.6064 132.572 58.9075Z" fill="black"/>
</svg>
