<svg width="209" height="209" viewBox="0 0 209 209" fill="none" xmlns="http://www.w3.org/2000/svg">
<g clip-path="url(#clip0)">
<path d="M104.507 209.014C162.224 209.014 209.014 162.224 209.014 104.507C209.014 46.7893 162.224 0 104.507 0C46.7893 0 0 46.7893 0 104.507C0 162.224 46.7893 209.014 104.507 209.014Z" fill="white"/>
<path d="M47.8632 141.992C49.0785 140.244 50.2392 138.591 51.4 136.925C55.7152 130.767 60.044 124.608 64.3319 118.436C65.0966 117.33 66.0389 116.865 67.3771 116.865C76.9088 116.893 86.4268 116.879 95.9584 116.879C96.2589 116.879 96.5593 116.879 96.9143 116.879C96.9143 103.455 96.9143 90.0865 96.9143 76.6766C101.967 76.6766 106.965 76.6766 112.017 76.6766C112.017 90.0455 112.017 103.401 112.017 116.879C112.373 116.879 112.659 116.879 112.96 116.879C122.56 116.879 132.16 116.893 141.746 116.865C142.948 116.865 143.835 117.261 144.532 118.258C149.926 125.987 155.347 133.716 160.755 141.445C160.864 141.596 160.959 141.76 161.11 141.992C123.365 141.992 85.6757 141.992 47.8632 141.992Z" fill="black"/>
<path d="M157.368 159.648C155.634 159.648 154.022 159.648 152.329 159.648C152.329 158.829 152.329 158.037 152.329 157.19C120.429 157.19 88.6253 157.19 56.7257 157.19C56.7257 157.969 56.7257 158.774 56.7257 159.621C55.0051 159.621 53.3664 159.621 51.6731 159.621C51.6731 158.815 51.6731 158.037 51.6731 157.149C50.9084 157.149 50.1846 157.149 49.4745 157.149C47.6173 157.136 46.6205 156.153 46.6205 154.295C46.6205 151.919 46.6205 149.543 46.6205 147.113C85.1977 147.113 123.734 147.113 162.325 147.113C162.339 147.29 162.38 147.468 162.38 147.645C162.38 149.926 162.393 152.206 162.38 154.487C162.366 156.071 161.328 157.109 159.744 157.136C158.979 157.149 158.215 157.136 157.354 157.136C157.368 157.996 157.368 158.788 157.368 159.648Z" fill="url(#paint0_linear)"/>
<path d="M104.466 71.6103C97.9248 71.6103 91.3837 71.6103 84.829 71.6103C82.7943 71.6103 81.8384 70.6407 81.8384 68.6197C81.8384 62.2152 81.8384 55.8107 81.8384 49.4062C81.8384 47.3988 82.7943 46.4429 84.788 46.4429C97.9248 46.4429 111.062 46.4429 124.185 46.4429C126.178 46.4429 127.134 47.3988 127.134 49.3925C127.134 55.838 127.134 62.2971 127.134 68.7426C127.134 70.5861 126.124 71.6103 124.294 71.6103C117.698 71.6103 111.089 71.6103 104.466 71.6103ZM119.555 59.0744C117.876 59.0744 116.251 59.0744 114.612 59.0744C114.612 60.754 114.612 62.3654 114.612 64.0041C116.278 64.0041 117.903 64.0041 119.555 64.0041C119.555 62.3381 119.555 60.7267 119.555 59.0744Z" fill="url(#paint1_linear)"/>
</g>
<defs>
<linearGradient id="paint0_linear" x1="46.6213" y1="153.393" x2="162.385" y2="153.393" gradientUnits="userSpaceOnUse">
<stop stop-color="#E20D18"/>
<stop offset="0.356" stop-color="#D81218"/>
<stop offset="0.9912" stop-color="#BE1818"/>
<stop offset="1" stop-color="#BE1818"/>
</linearGradient>
<linearGradient id="paint1_linear" x1="81.8493" y1="59.0221" x2="127.155" y2="59.0221" gradientUnits="userSpaceOnUse">
<stop stop-color="#E20D18"/>
<stop offset="0.356" stop-color="#D81218"/>
<stop offset="0.9912" stop-color="#BE1818"/>
<stop offset="1" stop-color="#BE1818"/>
</linearGradient>
<clipPath id="clip0">
<rect width="209" height="209" fill="white"/>
</clipPath>
</defs>
</svg>
