<svg width="50" height="67" viewBox="0 0 50 67" fill="none" xmlns="http://www.w3.org/2000/svg">
<path d="M50 67H0V0H33.3211L50 16.7685V67Z" fill="#B50000"/>
<path d="M33.3212 0V16.7685H50.0001L33.3212 0Z" fill="#8B0000"/>
<path d="M13.7766 34.5711C14.6951 34.9774 15.4298 35.6053 15.9074 36.3809C16.4218 37.1566 16.6789 38.0799 16.6789 39.1141C16.6789 40.1483 16.4218 41.0717 15.9074 41.8473C15.3931 42.6229 14.6951 43.2139 13.7766 43.6202C12.8582 44.0265 11.7561 44.2481 10.507 44.2481H8.0823V47.9046H4.15137V33.9802H10.507C11.7561 33.9802 12.8582 34.1648 13.7766 34.5711ZM12.0867 40.6285C12.4908 40.2591 12.7112 39.779 12.7112 39.1141C12.7112 38.4493 12.4908 37.9691 12.0867 37.5998C11.6826 37.2304 11.0581 37.0458 10.2498 37.0458H8.0823V41.1455H10.2866C11.0581 41.1455 11.6826 40.9609 12.0867 40.6285Z" fill="white"/>
<path d="M18.5892 33.9802H25.1653C26.6715 33.9802 28.0308 34.2756 29.2064 34.8297C30.382 35.3837 31.3005 36.1963 31.925 37.2674C32.5863 38.3016 32.8802 39.5573 32.8802 40.9609C32.8802 42.3644 32.5496 43.5833 31.925 44.6544C31.2637 45.6885 30.382 46.5011 29.2064 47.0921C28.0308 47.6461 26.6715 47.9416 25.1653 47.9416H18.5892V33.9802ZM24.9816 44.7652C26.1572 44.7652 27.1124 44.4328 27.8471 43.731C28.5819 43.0662 28.9125 42.1059 28.9125 40.9239C28.9125 39.742 28.5452 38.7817 27.8471 38.1169C27.1124 37.452 26.1572 37.0827 24.9816 37.0827H22.5202V44.7282H24.9816V44.7652Z" fill="white"/>
<path d="M38.8684 37.0088V40.0744H45.0036V43.14H38.8684V47.9046H34.9375V33.9802H45.8119V37.0458H38.8684V37.0088Z" fill="white"/>
</svg>
